# xmcd
#
# Track frame offsets: 
#        150
#        26467
#        58079
#        92063
#        125216
#        155128
#        191079
#        241732
#        267630
#        291084
#        321960
#        357624
#
# Disc length: 4794 seconds
#
# Revision: 3
# Processed by: cddbd v1.5.2PL0 Copyright (c) Steve Scherf et al.
# Submitted via: ExactAudioCopy v1.0b1
#
DISCID=c012b80c
DTITLE=Leonard Cohen - Blossoms Of Heaven, Ashes Of Hell [CD 2)
DYEAR=1998
DGENRE=Blues
TTITLE0=I'm Your Man
TTITLE1=Joan Of Arc
TTITLE2=Closing Time
TTITLE3=Take This Waltz
TTITLE4=Sisters Of Mercy
TTITLE5=Hallelujah
TTITLE6=I Tried to Leave You
TTITLE7=So Long Marianne
TTITLE8=Who By Fire?
TTITLE9=Ballad Of the Runaway Horse
TTITLE10=Joan Of Arc
TTITLE11=The Hypnotist
EXTD=
EXTT0=
EXTT1=
EXTT2=
EXTT3=
EXTT4=
EXTT5=
EXTT6=
EXTT7=
EXTT8=
EXTT9=
EXTT10=
EXTT11=
PLAYORDER=
